<?xml version="1.0" standalone="no"?>
<!DOCTYPE svg PUBLIC "-//W3C//DTD SVG 20010904//EN"
 "http://www.w3.org/TR/2001/REC-SVG-20010904/DTD/svg10.dtd">
<svg version="1.0" xmlns="http://www.w3.org/2000/svg"
 width="935.000000pt" height="1280.000000pt" viewBox="0 0 935.000000 1280.000000"
 preserveAspectRatio="xMidYMid meet">
<metadata>
Created by potrace 1.15, written by Peter Selinger 2001-2017
</metadata>
<g transform="translate(0.000000,1280.000000) scale(0.100000,-0.100000)"
fill="#000000" stroke="none">
<path d="M1150 12760 c-231 -65 -1128 -310 -1134 -310 -3 0 -6 -5 -6 -10 0 -6
372 -538 826 -1183 455 -644 1016 -1441 1248 -1769 231 -328 422 -596 423
-594 2 1 -6 29 -17 62 -10 32 -87 280 -170 549 -83 270 -191 618 -240 775 -49
157 -148 476 -220 710 -72 234 -171 553 -220 710 -49 157 -139 447 -200 645
-143 463 -140 455 -148 454 -4 0 -68 -18 -142 -39z"/>
<path d="M4580 9623 c-329 -20 -735 -126 -1165 -303 -160 -66 -622 -290 -795
-387 l-104 -58 -29 -90 c-174 -557 -303 -1088 -393 -1611 -25 -148 -56 -314
-69 -369 -29 -122 -59 -288 -82 -455 -25 -181 -25 -696 0 -865 48 -320 118
-580 289 -1065 298 -848 903 -1531 1848 -2088 80 -47 222 -131 315 -187 837
-500 1873 -922 3170 -1290 205 -58 335 -108 675 -260 284 -127 689 -334 848
-432 43 -27 13 1 -70 64 -283 216 -567 532 -790 878 -288 446 -528 1001 -718
1660 -185 644 -312 1272 -500 2480 -160 1024 -190 1208 -266 1610 -198 1039
-426 1681 -760 2132 -32 43 -112 132 -178 199 -269 268 -557 399 -951 433
-116 10 -159 11 -275 4z"/>
</g>
</svg>
